<?xml version="1.0" encoding="UTF-8" standalone="no"?>
<svg
   xmlns:dc="http://purl.org/dc/elements/1.1/"
   xmlns:cc="http://creativecommons.org/ns#"
   xmlns:rdf="http://www.w3.org/1999/02/22-rdf-syntax-ns#"
   xmlns:svg="http://www.w3.org/2000/svg"
   xmlns="http://www.w3.org/2000/svg"
   xmlns:xlink="http://www.w3.org/1999/xlink"
   xml:space="preserve"
   enable-background="new 0 0 576 576"
   viewBox="0 0 300 48.478996"
   height="48.478996"
   width="300"
   y="0px"
   x="0px"
   id="Layer_1"
   version="1.1"><metadata
     id="metadata3715"><rdf:RDF><cc:Work
         rdf:about=""><dc:format>image/svg+xml</dc:format><dc:type
           rdf:resource="http://purl.org/dc/dcmitype/StillImage" /><dc:title></dc:title></cc:Work></rdf:RDF></metadata><defs
     id="defs3713" />
	 <g
     transform="translate(-244,-336.521)"
     id="g3708"><defs
       id="defs3681"><rect
         height="48.479"
         width="300"
         y="336.521"
         x="244"
         id="SVGID_1_" /></defs><clipPath
       id="SVGID_2_"><use
         height="100%"
         width="100%"
         y="0"
         x="0"
         style="overflow:visible"
         id="use3683"
         overflow="visible"
         xlink:href="#SVGID_1_" /></clipPath><path
       style="fill:#66c18c"
       id="path3686"
       d="m 267.583,336.521 h -3.464 c -5.185,0.404 -10.002,2.615 -13.718,6.332 -4.129,4.128 -6.401,9.613 -6.401,15.452 0,5.837 2.272,11.323 6.401,15.451 4.127,4.128 9.614,6.398 15.451,6.398 5.836,0 11.325,-2.271 15.451,-6.398 4.127,-4.128 6.399,-9.614 6.399,-15.451 0,-5.839 -2.272,-11.324 -6.399,-15.452 -3.718,-3.717 -8.537,-5.928 -13.72,-6.332 m 11.764,35.279 c -2.116,2.115 -4.744,3.724 -7.603,4.651 l -0.814,0.265 v -14.741 l 5.855,5.856 1.957,-1.957 -9.217,-9.214 -9.214,9.214 1.955,1.957 5.897,-5.897 v 15.318 l -0.566,0.049 c -0.659,0.059 -1.213,0.09 -1.745,0.09 -5.099,0 -9.891,-1.988 -13.497,-5.591 -3.603,-3.606 -5.588,-8.398 -5.588,-13.495 0,-5.098 1.985,-9.892 5.588,-13.497 3.606,-3.603 8.398,-5.588 13.497,-5.588 5.097,0 9.891,1.985 13.495,5.588 3.604,3.605 5.59,8.399 5.59,13.497 10e-4,5.096 -1.986,9.888 -5.59,13.495 m -9.821,-20.057 7.258,7.258 1.958,-1.954 -9.217,-9.216 -9.214,9.216 1.956,1.954 z"
       clip-path="url(#SVGID_2_)" /><path
       style="fill:#66c18c"
       id="path3688"
       d="m 320.172,345.312 1.556,1.361 -2.479,2.918 c 1.701,1.851 3.354,3.941 3.354,8.271 0,4.183 -2.431,9.143 -7.685,10.406 4.33,0.974 7.49,3.553 7.49,7.93 0,5.739 -5.738,8.803 -12.11,8.803 -6.421,0 -11.868,-3.502 -11.868,-9.58 h 2.383 c 0,4.912 4.67,7.296 9.485,7.296 4.815,0 9.774,-1.85 9.774,-6.519 0,-4.716 -5.3,-6.615 -9.774,-6.615 -7.247,0 -12.403,-4.231 -12.403,-11.721 0,-7.783 6.615,-11.724 12.403,-11.724 2.431,0 5.544,0.779 7.394,2.091 z m -19.895,12.549 c 0,6.468 4.379,9.482 10.021,9.482 6.08,0 9.97,-4.522 9.97,-9.482 0,-6.665 -5.009,-9.485 -9.97,-9.485 -4.621,0 -10.021,2.918 -10.021,9.485"
       clip-path="url(#SVGID_2_)" /><path
       style="fill:#66c18c"
       id="path3690"
       d="m 329.996,346.527 0.096,4.279 c 1.51,-3.257 4.913,-4.522 7.977,-4.522 1.801,-0.049 3.551,0.438 5.157,1.41 l -1.071,1.946 c -1.265,-0.779 -2.676,-1.119 -4.086,-1.119 -4.474,0.049 -7.927,3.647 -7.927,8.026 v 14.007 h -2.383 v -24.027 z"
       clip-path="url(#SVGID_2_)" /><path
       style="fill:#66c18c"
       id="path3692"
       d="m 343.469,358.54 c 0,-7.198 5.447,-12.402 12.207,-12.402 6.763,0 12.793,4.136 11.871,13.522 H 345.9 c 0.489,5.643 4.815,8.951 9.776,8.951 3.162,0 6.859,-1.268 8.658,-3.65 l 1.701,1.362 c -2.332,3.063 -6.517,4.621 -10.359,4.621 -6.76,0 -12.207,-4.766 -12.207,-12.404 m 21.936,-0.973 c -0.05,-5.934 -3.94,-9.239 -9.729,-9.239 -4.961,0 -9.24,3.355 -9.776,9.239 z"
       clip-path="url(#SVGID_2_)" /><path
       style="fill:#66c18c"
       id="path3694"
       d="m 371.92,358.54 c 0,-7.198 5.449,-12.402 12.209,-12.402 6.761,0 12.793,4.136 11.867,13.522 h -21.643 c 0.486,5.643 4.816,8.951 9.775,8.951 3.162,0 6.857,-1.268 8.658,-3.65 l 1.701,1.362 c -2.334,3.063 -6.518,4.621 -10.359,4.621 -6.759,0 -12.208,-4.766 -12.208,-12.404 m 21.936,-0.973 c -0.048,-5.934 -3.938,-9.239 -9.728,-9.239 -4.959,0 -9.24,3.355 -9.775,9.239 z"
       clip-path="url(#SVGID_2_)" /><path
       style="fill:#66c18c"
       id="path3696"
       d="m 403.244,346.527 v 4.279 c 1.85,-3.307 5.205,-4.669 8.561,-4.718 6.42,0 10.846,3.94 10.846,10.605 v 13.86 h -2.383 v -13.812 c 0,-5.447 -3.354,-8.366 -8.559,-8.317 -4.963,0.049 -8.416,3.793 -8.416,8.753 v 13.377 h -2.384 v -24.027 z"
       clip-path="url(#SVGID_2_)" /><path
       style="fill:#66c18c"
       id="path3698"
       d="m 433.204,339.279 v 7.248 h 8.171 v 1.994 h -8.171 v 14.64 c 0,3.259 0.681,5.547 4.425,5.547 1.17,0 2.483,-0.391 3.698,-0.976 l 0.828,1.946 c -1.508,0.729 -3.017,1.217 -4.526,1.217 -5.104,0 -6.758,-3.016 -6.758,-7.734 v -14.64 h -5.109 v -1.994 h 5.109 v -7.004 z"
       clip-path="url(#SVGID_2_)" /><path
       style="fill:#66c18c"
       id="path3700"
       d="m 447.457,346.527 0.095,4.279 c 1.508,-3.257 4.914,-4.522 7.978,-4.522 1.801,-0.049 3.551,0.438 5.157,1.41 l -1.071,1.946 c -1.265,-0.779 -2.674,-1.119 -4.086,-1.119 -4.476,0.049 -7.927,3.647 -7.927,8.026 v 14.007 h -2.384 v -24.027 z"
       clip-path="url(#SVGID_2_)" /><path
       style="fill:#66c18c"
       id="path3702"
       d="m 485.297,346.528 v 24.026 h -2.383 v -5.106 c -2.336,3.744 -5.934,5.496 -9.826,5.496 -6.711,0 -12.207,-5.06 -12.207,-12.403 0,-7.343 5.496,-12.305 12.207,-12.305 3.893,0 7.832,1.798 9.826,5.545 v -5.253 z m -22.033,12.013 c 0,6.03 4.377,10.068 9.824,10.068 13.376,0 13.376,-20.088 0,-20.088 -5.447,0 -9.824,3.988 -9.824,10.02"
       clip-path="url(#SVGID_2_)" /><path
       style="fill:#66c18c"
       id="path3704"
       d="m 492.736,358.54 c 0,-6.76 4.428,-10.117 9.828,-10.117 5.544,0 9.824,4.086 9.824,10.07 0,4.313 -2.174,7.665 -5.502,9.2 -1.289,0.594 -2.748,0.917 -4.322,0.917 -5.4,0 -9.828,-3.405 -9.828,-10.07 m 22.035,-22.019 h -2.333 v 15.259 c -1.946,-3.891 -5.838,-5.642 -9.974,-5.642 -6.711,0 -12.062,4.474 -12.062,12.401 0,7.979 5.304,12.403 12.013,12.403 4.088,0 8.026,-2.043 10.022,-5.69 v 5.302 h 2.333 v -34.033 z"
       clip-path="url(#SVGID_2_)" /><path
       style="fill:#66c18c"
       id="path3706"
       d="m 519.828,358.54 c 0,-7.198 5.449,-12.402 12.21,-12.402 6.266,0 11.907,3.556 11.962,11.552 V 358 c -0.006,0.533 -0.037,1.088 -0.094,1.66 h -21.645 c 0.486,5.643 4.813,8.951 9.776,8.951 3.161,0 6.858,-1.268 8.657,-3.65 l 1.703,1.362 c -2.335,3.063 -6.518,4.621 -10.36,4.621 -6.76,0 -12.209,-4.766 -12.209,-12.404 m 21.939,-0.973 c -0.048,-5.934 -3.939,-9.239 -9.729,-9.239 -4.963,0 -9.241,3.355 -9.776,9.239 z"
       clip-path="url(#SVGID_2_)" /></g>
</svg>