<?xml version="1.0" encoding="UTF-8"?>
<!DOCTYPE svg PUBLIC "-//W3C//DTD SVG 1.1//EN" "http://www.w3.org/Graphics/SVG/1.1/DTD/svg11.dtd">
<!-- Creator: CorelDRAW X6 -->
<svg xmlns="http://www.w3.org/2000/svg" xml:space="preserve" width="8.5in" height="11in" version="1.1" style="shape-rendering:geometricPrecision; text-rendering:geometricPrecision; image-rendering:optimizeQuality; fill-rule:evenodd; clip-rule:evenodd"
viewBox="0 0 8500 11000"
 xmlns:xlink="http://www.w3.org/1999/xlink">
 <defs>
  <style type="text/css">
   <![CDATA[
    .fil0 {fill:#69C28E;fill-rule:nonzero}
   ]]>
  </style>
 </defs>
 <g id="Layer_x0020_1">
  <metadata id="CorelCorpID_0Corel-Layer"/>
  <path class="fil0" d="M2952 5406l76 76 20 -20 -96 -96 -96 96 20 20 76 -76zm102 209c-22,22 -49,39 -79,49l-9 3 0 -154 61 61 20 -20 -96 -96 -96 96 20 20 62 -62 0 160 -6 1c-7,1 -13,1 -18,1 -53,0 -103,-21 -141,-58 -38,-38 -58,-88 -58,-141 0,-53 21,-103 58,-141 38,-38 88,-58 141,-58 53,0 103,21 141,58 38,38 58,88 58,141 0,53 -21,103 -58,141zm-123 -368l-36 0c-54,4 -104,27 -143,66 -43,43 -67,100 -67,161 0,61 24,118 67,161 43,43 100,67 161,67 61,0 118,-24 161,-67 43,-43 67,-100 67,-161 0,-61 -24,-118 -67,-161 -39,-39 -89,-62 -143,-66z"/>
  <path class="fil0" d="M3272 5470c0,67 46,99 105,99 63,0 104,-47 104,-99 0,-70 -52,-99 -104,-99 -48,0 -105,30 -105,99zm208 -131l16 14 -26 30c18,19 35,41 35,86 0,44 -25,95 -80,109 45,10 78,37 78,83 0,60 -60,92 -126,92 -67,0 -124,-37 -124,-100l25 0c0,51 49,76 99,76 50,0 102,-19 102,-68 0,-49 -55,-69 -102,-69 -76,0 -129,-44 -129,-122 0,-81 69,-122 129,-122 25,0 58,8 77,22l26 -30z"/>
  <path class="fil0" d="M3582 5352l1 45c16,-34 51,-47 83,-47 19,0 37,5 54,15l-11 20c-13,-8 -28,-12 -43,-12 -47,1 -83,38 -83,84l0 146 -25 0 0 -251 23 0z"/>
  <path class="fil0" d="M3952 5467c-1,-62 -41,-96 -102,-96 -52,0 -96,35 -102,96l203 0zm-229 10c0,-75 57,-129 127,-129 71,0 133,43 124,141l-226 0c5,59 50,93 102,93 33,0 72,-13 90,-38l18 14c-24,32 -68,48 -108,48 -71,0 -127,-50 -127,-129z"/>
  <path class="fil0" d="M4249 5467c0,-62 -41,-96 -101,-96 -52,0 -96,35 -102,96l203 0zm-229 10c0,-75 57,-129 127,-129 71,0 133,43 124,141l-226 0c5,59 50,93 102,93 33,0 72,-13 90,-38l18 14c-24,32 -68,48 -108,48 -71,0 -127,-50 -127,-129z"/>
  <path class="fil0" d="M4346 5352l0 45c19,-35 54,-49 89,-49 67,0 113,41 113,111l0 145 -25 0 0 -144c0,-57 -35,-87 -89,-87 -52,1 -88,40 -88,91l0 140 -25 0 0 -251 24 0z"/>
  <path class="fil0" d="M4659 5276l0 76 85 0 0 21 -85 0 0 153c0,34 7,58 46,58 12,0 26,-4 39,-10l9 20c-16,8 -31,13 -47,13 -53,0 -71,-31 -71,-81l0 -153 -53 0 0 -21 53 0 0 -73 24 -3z"/>
  <path class="fil0" d="M4808 5352l1 45c16,-34 51,-47 83,-47 19,0 37,5 54,15l-11 20c-13,-8 -28,-12 -43,-12 -47,1 -83,38 -83,84l0 146 -25 0 0 -251 23 0z"/>
  <path class="fil0" d="M4973 5477c0,63 46,105 102,105 140,0 140,-210 0,-210 -57,0 -102,42 -102,105zm230 -125l0 251 -25 0 0 -53c-24,39 -62,57 -103,57 -70,0 -127,-53 -127,-129 0,-77 57,-128 127,-128 41,0 82,19 103,58l0 -55 25 0z"/>
  <path class="fil0" d="M5510 5247l-24 0 0 159c-20,-41 -61,-59 -104,-59 -70,0 -126,47 -126,129 0,83 55,129 125,129 43,0 84,-21 105,-59l0 55 24 0 0 -355zm-230 230c0,-71 46,-106 103,-106 58,0 102,43 102,105 0,45 -23,80 -57,96 -13,6 -29,10 -45,10 -56,0 -103,-36 -103,-105z"/>
  <path class="fil0" d="M5791 5467c-1,-62 -41,-96 -101,-96 -52,0 -96,35 -102,96l203 0zm-229 10c0,-75 57,-129 127,-129 65,0 124,37 125,121l0 3c0,6 0,11 -1,17l-226 0c5,59 50,93 102,93 33,0 72,-13 90,-38l18 14c-24,32 -68,48 -108,48 -71,0 -127,-50 -127,-129z"/>
 </g>
</svg>
