<svg xmlns="http://www.w3.org/2000/svg">
	<symbol id="android" viewBox="0 0 148 32">
		<title>android</title>
		<path fill="#7ac259" d="M12.167 26.643c0.448 0 0.921-0.049 1.413-0.146s0.989-0.261 1.49-0.492c0.501-0.232 0.99-0.543 1.468-0.933 0.478-0.386 0.934-0.866 1.369-1.435v-7.125c-0.436-0.567-0.892-1.041-1.369-1.424-0.479-0.38-0.967-0.69-1.468-0.929-0.5-0.238-0.997-0.408-1.49-0.504-0.492-0.096-0.965-0.143-1.413-0.143-0.88 0-1.705 0.162-2.475 0.492-0.768 0.329-1.437 0.788-2.004 1.38-0.568 0.587-1.012 1.284-1.333 2.083s-0.483 1.669-0.483 2.61c0 0.942 0.161 1.81 0.483 2.609 0.32 0.8 0.765 1.494 1.333 2.086 0.568 0.589 1.236 1.049 2.006 1.377s1.597 0.493 2.476 0.493zM0 20.079c0-1.675 0.28-3.236 0.841-4.684 0.561-1.449 1.343-2.712 2.351-3.788s2.219-1.921 3.62-2.533c1.402-0.613 2.943-0.919 4.616-0.919 1.269 0 2.424 0.188 3.464 0.563 1.038 0.372 2.042 0.985 3.013 1.836v-1.95h5.692v22.947h-5.692v-1.95c-0.971 0.85-1.976 1.465-3.013 1.838-1.040 0.375-2.193 0.563-3.466 0.563-1.672 0-3.212-0.309-4.614-0.921-1.404-0.611-2.611-1.457-3.62-2.532s-1.791-2.338-2.351-3.786c-0.563-1.449-0.842-3.010-0.842-4.683zM37.826 13.821c-2.696 0.020-5.040 1.898-5.040 4.689v13.041h-5.691v-12.884c0.033-5.373 4.684-10.437 10.649-10.508h0.16c5.966 0.071 10.62 5.135 10.651 10.508v12.885h-5.692v-13.040c0-2.79-2.343-4.669-5.040-4.691zM63.415 26.643c0.448 0 0.919-0.049 1.413-0.146s0.989-0.261 1.49-0.492c0.501-0.232 0.989-0.543 1.468-0.933 0.477-0.386 0.934-0.866 1.366-1.435v-7.125c-0.434-0.567-0.891-1.041-1.369-1.424-0.477-0.38-0.966-0.69-1.466-0.929-0.5-0.238-0.998-0.408-1.49-0.504s-0.965-0.143-1.413-0.143c-0.881 0-1.706 0.162-2.476 0.492-0.768 0.329-1.437 0.788-2.003 1.38-0.57 0.587-1.012 1.284-1.333 2.083s-0.482 1.669-0.482 2.61c0 0.942 0.161 1.81 0.482 2.609 0.32 0.8 0.764 1.494 1.333 2.086 0.567 0.589 1.236 1.049 2.004 1.377s1.596 0.493 2.477 0.493zM51.247 20.079c0-1.675 0.28-3.236 0.841-4.684 0.561-1.449 1.344-2.712 2.353-3.788s2.215-1.921 3.62-2.533c1.402-0.613 2.94-0.919 4.614-0.919 1.272 0 2.428 0.188 3.475 0.563 1.045 0.372 2.046 0.977 3.002 1.813v-8.808h5.692v29.827h-5.692v-1.927c-0.957 0.852-1.957 1.46-3.002 1.827-1.046 0.364-2.204 0.549-3.475 0.549-1.674 0-3.212-0.309-4.616-0.921s-2.61-1.457-3.62-2.532c-1.010-1.075-1.791-2.338-2.351-3.786-0.563-1.449-0.842-3.010-0.842-4.683zM101.501 32c-1.661 0-3.223-0.298-4.685-0.897-1.464-0.596-2.744-1.43-3.841-2.498-1.099-1.071-1.965-2.331-2.599-3.789-0.636-1.454-0.953-3.035-0.953-4.738 0-1.658 0.317-3.212 0.953-4.66 0.634-1.449 1.497-2.712 2.587-3.788s2.371-1.923 3.841-2.544c1.474-0.62 3.038-0.93 4.698-0.93 1.658 0 3.219 0.309 4.682 0.93 1.465 0.62 2.742 1.468 3.833 2.544 1.089 1.076 1.954 2.338 2.587 3.788 0.635 1.448 0.951 3.002 0.951 4.66 0 1.704-0.317 3.285-0.953 4.739-0.635 1.457-1.501 2.721-2.599 3.79-1.098 1.067-2.373 1.901-3.832 2.498-1.459 0.598-3.015 0.896-4.673 0.896zM101.498 26.645c0.85 0 1.652-0.16 2.406-0.482 0.756-0.32 1.413-0.773 1.974-1.358s1-1.273 1.321-2.072c0.321-0.799 0.482-1.684 0.482-2.656 0-0.956-0.166-1.832-0.492-2.632-0.329-0.799-0.777-1.49-1.347-2.073-0.566-0.583-1.223-1.038-1.97-1.369-0.746-0.327-1.538-0.49-2.373-0.49-0.852 0-1.656 0.163-2.411 0.491-0.755 0.329-1.413 0.784-1.971 1.369-0.561 0.582-1.004 1.273-1.333 2.072s-0.493 1.678-0.493 2.632c0 0.971 0.161 1.858 0.483 2.656s0.762 1.49 1.321 2.073c0.56 0.583 1.219 1.038 1.972 1.358 0.751 0.323 1.564 0.482 2.43 0.482zM118.951 6.808c-0.461 0-0.896-0.090-1.308-0.27s-0.77-0.424-1.082-0.734c-0.309-0.309-0.552-0.669-0.734-1.082-0.179-0.408-0.269-0.847-0.269-1.308 0-0.46 0.091-0.9 0.269-1.317 0.181-0.419 0.426-0.784 0.735-1.093s0.67-0.554 1.082-0.734c0.412-0.18 0.845-0.27 1.307-0.27s0.901 0.090 1.319 0.27c0.418 0.18 0.784 0.425 1.093 0.735 0.309 0.309 0.552 0.673 0.734 1.093 0.18 0.416 0.269 0.855 0.269 1.316 0 0.461-0.088 0.897-0.269 1.309-0.181 0.411-0.426 0.773-0.735 1.082s-0.673 0.554-1.093 0.734c-0.419 0.18-0.856 0.272-1.318 0.272z"></path>
		<path fill="#7ac259" d="M116.104 8.605h5.692v22.947h-5.691z"></path>
		<path fill="#7ac259" d="M136.582 26.643c0.448 0 0.919-0.049 1.413-0.146s0.989-0.261 1.49-0.492c0.5-0.232 0.989-0.543 1.468-0.933 0.477-0.386 0.934-0.866 1.366-1.435v-7.125c-0.433-0.567-0.89-1.041-1.366-1.424-0.478-0.38-0.967-0.69-1.468-0.929-0.499-0.238-0.997-0.408-1.49-0.504s-0.964-0.143-1.413-0.143c-0.88 0-1.705 0.162-2.475 0.492-0.769 0.329-1.438 0.788-2.004 1.38-0.57 0.587-1.013 1.284-1.336 2.083s-0.481 1.669-0.481 2.61c0 0.942 0.161 1.81 0.482 2.609 0.32 0.8 0.765 1.494 1.336 2.086 0.566 0.589 1.234 1.049 2.003 1.377s1.595 0.493 2.476 0.493zM124.415 20.079c0-1.675 0.279-3.236 0.839-4.684 0.563-1.449 1.347-2.712 2.354-3.788s2.215-1.921 3.618-2.533c1.405-0.613 2.944-0.919 4.618-0.919 1.269 0 2.428 0.188 3.474 0.563 1.046 0.372 2.047 0.977 3.004 1.813v-8.808h5.691v29.827h-5.691v-1.927c-0.957 0.852-1.957 1.46-3.002 1.827-1.046 0.364-2.204 0.549-3.475 0.549-1.674 0-3.212-0.309-4.617-0.921-1.402-0.611-2.608-1.457-3.617-2.532s-1.793-2.338-2.353-3.786c-0.56-1.449-0.839-3.010-0.839-4.683zM88.877 13.753c-3.815 0-5.497 1.968-5.497 4.757v13.042h-5.691v-12.885c0.033-5.373 3.135-10.656 11.189-10.656z"></path>
	</symbol>
	<symbol id="iphone" viewBox="-5 -5 150 40">
		<path d="M35.979 1.867c-0.508 0-0.93 0.174-1.27 0.535-0.342 0.356-0.509 0.784-0.509 1.285 0 0.516 0.168 0.93 0.509 1.266 0.34 0.348 0.762 0.511 1.27 0.511 0.5 0 0.931-0.163 1.284-0.511 0.36-0.336 0.538-0.751 0.538-1.266 0-0.5-0.178-0.928-0.538-1.285-0.353-0.36-0.783-0.535-1.284-0.535z"></path>
		<path d="M34.947 10.183h2.098v21.333h-2.098v-21.333z"></path>
		<path d="M53.936 15.374c-1.485 1.247-3.554 1.863-6.187 1.863-0.705 0-1.384-0.027-2.003-0.080-0.619-0.061-1.185-0.166-1.691-0.311v-13.379c0.42-0.095 0.969-0.172 1.648-0.244 0.686-0.076 1.498-0.115 2.449-0.115 1.183 0 2.261 0.142 3.239 0.428 0.976 0.286 1.825 0.689 2.544 1.238 0.701 0.552 1.251 1.256 1.639 2.112 0.383 0.863 0.575 1.867 0.575 3.023 0.001 2.402-0.737 4.221-2.213 5.464zM56.020 3.823c-0.833-0.794-1.891-1.418-3.183-1.846-1.286-0.43-2.817-0.646-4.602-0.646-1.24 0-2.382 0.063-3.422 0.183-1.039 0.119-1.987 0.253-2.838 0.397v29.603h2.080v-12.807c1.002 0.207 2.172 0.32 3.507 0.32 1.533 0 2.955-0.197 4.251-0.583 1.294-0.384 2.419-0.972 3.364-1.759 0.95-0.782 1.692-1.759 2.239-2.91 0.552-1.156 0.813-2.503 0.813-4.041 0-1.274-0.187-2.399-0.583-3.387-0.383-0.974-0.929-1.82-1.625-2.524z"></path>
		<path d="M74.727 11.233c-0.768-0.613-1.561-1.022-2.376-1.211-0.824-0.195-1.474-0.289-1.974-0.289-1.662 0-3.090 0.373-4.273 1.121-1.184 0.749-2.118 1.764-2.799 3.057h-0.083v-13.912h-2.090v31.515h2.090v-13.12c0-0.796 0.099-1.496 0.306-2.086 0.442-1.327 1.225-2.469 2.338-3.399 1.111-0.93 2.411-1.395 3.929-1.395 1.072 0 1.96 0.202 2.69 0.598 0.725 0.397 1.308 0.936 1.753 1.604 0.442 0.662 0.77 1.441 0.958 2.314 0.196 0.871 0.291 1.779 0.291 2.723v12.765h2.084v-13c0-1.921-0.279-3.454-0.843-4.614-0.562-1.155-1.231-2.043-2-2.669z"></path>
		<path d="M97.596 24.578c-0.391 1.156-0.92 2.145-1.597 2.974-0.689 0.837-1.501 1.484-2.453 1.956-0.943 0.481-1.963 0.717-3.061 0.717-1.126 0-2.157-0.236-3.068-0.717-0.919-0.473-1.711-1.12-2.375-1.956-0.671-0.828-1.184-1.812-1.559-2.951-0.373-1.139-0.551-2.375-0.551-3.714 0-1.118 0.142-2.247 0.445-3.383 0.289-1.116 0.76-2.127 1.393-3.011 0.644-0.888 1.437-1.616 2.406-2.177 0.958-0.57 2.112-0.852 3.442-0.852 1.359 0 2.529 0.302 3.489 0.915 0.958 0.603 1.738 1.374 2.34 2.286 0.588 0.924 1.025 1.921 1.305 3.004 0.282 1.075 0.417 2.11 0.417 3.087-0.001 1.394-0.196 2.666-0.574 3.823zM97.578 12.688c-0.847-0.957-1.851-1.704-3.043-2.223-1.175-0.513-2.481-0.775-3.895-0.775-1.304 0-2.538 0.245-3.707 0.732-1.168 0.489-2.208 1.222-3.129 2.176-0.914 0.967-1.637 2.15-2.17 3.557-0.531 1.409-0.797 3.030-0.797 4.862 0 1.693 0.243 3.214 0.73 4.559 0.484 1.341 1.163 2.503 2.025 3.464 0.858 0.968 1.865 1.703 3.030 2.208 1.165 0.5 2.412 0.752 3.747 0.752 1.153 0 2.313-0.216 3.475-0.647 1.17-0.421 2.236-1.099 3.195-2.019 0.967-0.917 1.744-2.090 2.339-3.536 0.585-1.434 0.876-3.143 0.876-5.133 0-1.655-0.231-3.162-0.705-4.509-0.473-1.35-1.13-2.5-1.971-3.468z"></path>
		<path d="M117.188 11.233c-0.791-0.613-1.59-1.022-2.401-1.213-0.815-0.192-1.479-0.287-1.975-0.287-1.726 0-3.206 0.415-4.447 1.23-1.249 0.82-2.152 1.821-2.714 2.986h-0.176v-3.767h-2.040c0.053 0.852 0.097 1.673 0.131 2.438 0.020 0.773 0.042 1.658 0.042 2.66v16.234h2.085v-13.248c0-0.68 0.109-1.3 0.316-1.869 0.415-1.415 1.182-2.593 2.305-3.504 1.126-0.923 2.426-1.38 3.915-1.38 1.065 0 1.969 0.201 2.709 0.598 0.739 0.397 1.335 0.935 1.777 1.604 0.446 0.662 0.766 1.448 0.962 2.33 0.184 0.886 0.291 1.808 0.291 2.762v12.711h2.080v-12.905c0-1.956-0.274-3.512-0.839-4.685-0.564-1.168-1.24-2.069-2.021-2.694z"></path>
		<path d="M125.541 18.936c0.078-0.835 0.275-1.698 0.578-2.57 0.289-0.878 0.72-1.687 1.281-2.419 0.562-0.727 1.252-1.337 2.081-1.813 0.828-0.471 1.803-0.713 2.926-0.713 1.238 0 2.252 0.246 3.058 0.739 0.792 0.493 1.434 1.111 1.896 1.853 0.476 0.748 0.805 1.559 0.986 2.439 0.169 0.881 0.262 1.707 0.262 2.486h-13.067zM139.269 13.341c-0.593-0.987-1.408-1.84-2.463-2.545-1.049-0.706-2.43-1.063-4.155-1.063-1.334 0-2.565 0.263-3.713 0.799-1.14 0.535-2.131 1.299-2.955 2.309-0.826 0.998-1.479 2.209-1.959 3.609-0.471 1.407-0.704 2.999-0.704 4.769 0 1.572 0.226 3.009 0.681 4.332 0.445 1.314 1.102 2.442 1.956 3.388 0.845 0.948 1.869 1.69 3.073 2.219 1.194 0.528 2.55 0.795 4.068 0.795 1.77 0 3.206-0.167 4.288-0.499 1.083-0.329 1.831-0.618 2.246-0.845l-0.536-1.635c-0.593 0.27-1.345 0.532-2.242 0.808-0.905 0.265-2.072 0.394-3.494 0.394-1.067 0-2.080-0.168-3.048-0.514-0.955-0.339-1.802-0.897-2.53-1.676-0.723-0.763-1.302-1.759-1.733-2.971-0.432-1.198-0.647-2.658-0.647-4.412h15.335c0.039-0.236 0.042-0.422 0.042-0.602v-0.709c0-0.797-0.099-1.739-0.311-2.835-0.208-1.083-0.609-2.128-1.201-3.116z"></path>
		<path d="M21.261 17.336c0.044 4.735 4.158 6.302 4.198 6.331-0.032 0.111-0.647 2.251-2.156 4.446-1.307 1.902-2.655 3.8-4.787 3.84-2.102 0.038-2.766-1.245-5.159-1.238-2.399 0-3.144 1.208-5.124 1.279-2.064 0.080-3.631-2.056-4.937-3.952-2.69-3.877-4.743-10.964-1.993-15.762 1.372-2.381 3.818-3.878 6.469-3.923 2.027-0.035 3.931 1.355 5.161 1.355 1.237 0 3.554-1.669 5.993-1.429 1.015 0.039 3.877 0.407 5.718 3.094-0.149 0.088-3.417 1.994-3.383 5.96zM17.324 5.715c1.087-1.323 1.825-3.162 1.624-4.999-1.572 0.072-3.478 1.055-4.604 2.373-1.015 1.173-1.891 3.048-1.649 4.839 1.753 0.14 3.543-0.893 4.629-2.213z"></path>
	</symbol>
	
	<symbol id="verizon" viewBox="0 0 146 32">
		<title>verizon</title>
		<path fill="#ce2b2b" d="M131.689 10.595h-3.251l4.941 10.592h2.628l9.879-21.187h-3.228l-7.959 17.074z"></path>
		<path fill="#000" d="M-1.956 1.312h132.283v32.823h-132.283v-32.823z"></path>
	</symbol>
	<symbol id="sprint" viewBox="0 0 79 32">
		<path fill="#000" d="M2.817 28.184c-0.914 0-1.809-0.109-2.536-0.294l0.112-1.894c0.709 0.257 1.697 0.458 2.611 0.458 1.38 0 2.499-0.569 2.499-1.912 0-2.612-5.502-1.508-5.502-5.519 0-2.134 1.698-3.623 4.626-3.623 0.746 0 1.511 0.092 2.276 0.221l-0.112 1.784c-0.727-0.221-1.529-0.349-2.276-0.349-1.567 0-2.369 0.717-2.369 1.748 0 2.483 5.502 1.563 5.502 5.445 0 2.281-1.828 3.936-4.831 3.936z"></path>
		<path fill="#000" d="M12.552 28.129c-0.522 0-0.914-0.018-1.399-0.109v3.98h-1.996v-13.143h1.884c0 0.48-0.019 1.215-0.112 1.711h0.037c0.522-1.159 1.586-1.894 3.002-1.894 2.201 0 3.413 1.544 3.413 4.305-0.001 3.218-1.735 5.15-4.83 5.15zM13.447 20.293c-1.492 0-2.294 1.729-2.294 3.293v2.814c0.429 0.129 0.895 0.184 1.454 0.184 1.586 0 2.668-0.956 2.668-3.421-0.001-1.839-0.579-2.87-1.828-2.87z"></path>
		<path fill="#000" d="M23.782 20.605c-1.847-0.331-2.742 0.94-2.742 3.679v3.717h-1.995v-9.143h1.902c0 0.515-0.057 1.326-0.187 2.024h0.037c0.411-1.233 1.343-2.373 3.078-2.207z"></path>
		<path fill="#000" d="M26.631 17.497c-0.709 0-1.287-0.552-1.287-1.234 0-0.68 0.578-1.233 1.287-1.233 0.69 0 1.269 0.534 1.269 1.233 0 0.681-0.579 1.234-1.269 1.234zM25.625 18.858h1.996v9.143h-1.996z"></path>
		<path fill="#000" d="M35.828 28.001v-5.888c0-1.14-0.317-1.801-1.38-1.801-1.398 0-2.424 1.452-2.424 3.274v4.415h-1.996v-9.143h1.903c0 0.479-0.037 1.27-0.131 1.784l0.019 0.018c0.541-1.177 1.66-1.986 3.227-1.986 2.107 0 2.761 1.305 2.761 2.924v6.403z"></path>
		<path fill="#000" d="M43.304 28.166c-1.978 0-2.575-0.754-2.575-2.796v-4.985h-1.772v-1.528h1.772v-2.906l1.977-0.534v3.44h2.443v1.528h-2.424v4.378c0 1.362 0.279 1.729 1.211 1.729 0.411 0 0.859-0.056 1.213-0.147v1.618c-0.542 0.112-1.232 0.203-1.845 0.203z"></path>
		<path fill="#f3cc00" d="M62.496 22.248c3.118-3.959 5.57-8.608 5.57-11.948 0-1.745-1.267-2.963-2.919-3.889 0.030 3.63-1.243 12.138-2.651 15.837z"></path>
		<path fill="#f3cc00" d="M52.274 32c7.307-2.411 17.899-8.028 25.266-13.045 0.616-0.42 1.1-0.811 1.1-1.491 0-1.187-2.203-2.775-3.271-3.408-5.797 5.944-17.332 14.848-23.096 17.944z"></path>
		<path fill="#f3cc00" d="M59.053 26.952c4.504-3.074 11.049-8.851 13.264-11.997 0.522-0.741 0.908-1.169 0.908-1.943 0-1.269-1.498-2.198-2.579-2.846-2.586 6.014-8.399 13.502-11.593 16.785z"></path>
		<path fill="#f3cc00" d="M63.156 18.43c0.584-3.797 0.24-8.382-0.502-11.258-0.405-1.566-1.837-3.333-3.161-3.885 1.736 4.859 3.225 11.778 3.663 15.143z"></path>
		<path fill="#f3cc00" d="M61.873 13.103c-1.366-3.64-4.767-11.223-9.771-13.103 3.257 3.546 8.091 10.583 9.771 13.103z"></path>
		<path fill="#fff" d="M66.772 28.001v-1.037h-0.341v-0.133h0.846v0.133h-0.344v1.037z"></path>
		<path fill="#000" d="M46.461 16.956c-0.445 0-0.78-0.339-0.78-0.769 0-0.424 0.35-0.769 0.78-0.769 0.44 0 0.78 0.335 0.78 0.769 0 0.416-0.359 0.769-0.78 0.769zM46.461 15.566c-0.343 0-0.619 0.275-0.619 0.614 0 0.338 0.275 0.627 0.619 0.627 0.342 0 0.618-0.274 0.618-0.613 0-0.338-0.276-0.628-0.618-0.628zM46.615 16.614l-0.256-0.389h-0.007v0.389h-0.139v-0.865h0.249c0.207 0 0.29 0.085 0.29 0.216 0 0.149-0.095 0.238-0.238 0.253 0.019 0.022 0.054 0.070 0.087 0.123l0.192 0.274zM46.453 15.86h-0.102v0.276h0.064c0.147 0 0.192-0.082 0.192-0.153 0-0.086-0.041-0.123-0.155-0.123z"></path>
		<path fill="#fff" d="M68.714 28.001l-0.099-0.677c-0.020-0.133-0.030-0.218-0.037-0.287h-0.003c-0.012 0.055-0.032 0.128-0.059 0.212l-0.254 0.753h-0.173l-0.24-0.702c-0.030-0.089-0.063-0.185-0.077-0.262h-0.001c-0.008 0.095-0.021 0.188-0.034 0.303l-0.081 0.661h-0.165l0.174-1.171h0.199l0.25 0.737c0.030 0.085 0.053 0.163 0.067 0.232h0.003c0.017-0.082 0.036-0.138 0.063-0.222l0.259-0.747h0.2l0.178 1.171z"></path>
	</symbol>
</svg>