<?xml version="1.0" encoding="utf-8"?>
<!-- Generator: Adobe Illustrator 16.0.4, SVG Export Plug-In . SVG Version: 6.00 Build 0)  -->
<!DOCTYPE svg PUBLIC "-//W3C//DTD SVG 1.1//EN" "http://www.w3.org/Graphics/SVG/1.1/DTD/svg11.dtd">
<svg version="1.1" id="Layer_1" xmlns="http://www.w3.org/2000/svg" xmlns:xlink="http://www.w3.org/1999/xlink" x="0px" y="0px"
	 width="576px" height="576px" viewBox="0 0 576 576" enable-background="new 0 0 576 576" xml:space="preserve">
<g>
	<defs>
		<rect id="SVGID_1_" x="244" y="336.521" width="300" height="48.479"/>
	</defs>
	<clipPath id="SVGID_2_">
		<use xlink:href="#SVGID_1_"  overflow="visible"/>
	</clipPath>
	<path clip-path="url(#SVGID_2_)" fill="#66C18C" d="M267.583,336.521h-3.464c-5.185,0.404-10.002,2.615-13.718,6.332
		c-4.129,4.128-6.401,9.613-6.401,15.452c0,5.837,2.272,11.323,6.401,15.451c4.127,4.128,9.614,6.398,15.451,6.398
		c5.836,0,11.325-2.271,15.451-6.398c4.127-4.128,6.399-9.614,6.399-15.451c0-5.839-2.272-11.324-6.399-15.452
		C277.585,339.136,272.766,336.925,267.583,336.521 M279.347,371.8c-2.116,2.115-4.744,3.724-7.603,4.651l-0.814,0.265v-14.741
		l5.855,5.856l1.957-1.957l-9.217-9.214l-9.214,9.214l1.955,1.957l5.897-5.897v15.318l-0.566,0.049
		c-0.659,0.059-1.213,0.09-1.745,0.09c-5.099,0-9.891-1.988-13.497-5.591c-3.603-3.606-5.588-8.398-5.588-13.495
		c0-5.098,1.985-9.892,5.588-13.497c3.606-3.603,8.398-5.588,13.497-5.588c5.097,0,9.891,1.985,13.495,5.588
		c3.604,3.605,5.59,8.399,5.59,13.497C284.938,363.401,282.951,368.193,279.347,371.8 M269.526,351.743l7.258,7.258l1.958-1.954
		l-9.217-9.216l-9.214,9.216l1.956,1.954L269.526,351.743z"/>
	<path clip-path="url(#SVGID_2_)" fill="#66C18C" d="M320.172,345.312l1.556,1.361l-2.479,2.918
		c1.701,1.851,3.354,3.941,3.354,8.271c0,4.183-2.431,9.143-7.685,10.406c4.33,0.974,7.49,3.553,7.49,7.93
		c0,5.739-5.738,8.803-12.11,8.803c-6.421,0-11.868-3.502-11.868-9.58h2.383c0,4.912,4.67,7.296,9.485,7.296s9.774-1.85,9.774-6.519
		c0-4.716-5.3-6.615-9.774-6.615c-7.247,0-12.403-4.231-12.403-11.721c0-7.783,6.615-11.724,12.403-11.724
		c2.431,0,5.544,0.779,7.394,2.091L320.172,345.312z M300.277,357.861c0,6.468,4.379,9.482,10.021,9.482
		c6.08,0,9.97-4.522,9.97-9.482c0-6.665-5.009-9.485-9.97-9.485C305.677,348.376,300.277,351.294,300.277,357.861"/>
	<path clip-path="url(#SVGID_2_)" fill="#66C18C" d="M329.996,346.527l0.096,4.279c1.51-3.257,4.913-4.522,7.977-4.522
		c1.801-0.049,3.551,0.438,5.157,1.41l-1.071,1.946c-1.265-0.779-2.676-1.119-4.086-1.119c-4.474,0.049-7.927,3.647-7.927,8.026
		v14.007h-2.383v-24.027H329.996z"/>
	<path clip-path="url(#SVGID_2_)" fill="#66C18C" d="M343.469,358.54c0-7.198,5.447-12.402,12.207-12.402
		c6.763,0,12.793,4.136,11.871,13.522h-21.647c0.489,5.643,4.815,8.951,9.776,8.951c3.162,0,6.859-1.268,8.658-3.65l1.701,1.362
		c-2.332,3.063-6.517,4.621-10.359,4.621C348.916,370.944,343.469,366.178,343.469,358.54 M365.405,357.567
		c-0.05-5.934-3.94-9.239-9.729-9.239c-4.961,0-9.24,3.355-9.776,9.239H365.405z"/>
	<path clip-path="url(#SVGID_2_)" fill="#66C18C" d="M371.92,358.54c0-7.198,5.449-12.402,12.209-12.402
		c6.761,0,12.793,4.136,11.867,13.522h-21.643c0.486,5.643,4.816,8.951,9.775,8.951c3.162,0,6.857-1.268,8.658-3.65l1.701,1.362
		c-2.334,3.063-6.518,4.621-10.359,4.621C377.369,370.944,371.92,366.178,371.92,358.54 M393.856,357.567
		c-0.048-5.934-3.938-9.239-9.728-9.239c-4.959,0-9.24,3.355-9.775,9.239H393.856z"/>
	<path clip-path="url(#SVGID_2_)" fill="#66C18C" d="M403.244,346.527v4.279c1.85-3.307,5.205-4.669,8.561-4.718
		c6.42,0,10.846,3.94,10.846,10.605v13.86h-2.383v-13.812c0-5.447-3.354-8.366-8.559-8.317c-4.963,0.049-8.416,3.793-8.416,8.753
		v13.377h-2.384v-24.027H403.244z"/>
	<path clip-path="url(#SVGID_2_)" fill="#66C18C" d="M433.204,339.279v7.248h8.171v1.994h-8.171v14.64
		c0,3.259,0.681,5.547,4.425,5.547c1.17,0,2.483-0.391,3.698-0.976l0.828,1.946c-1.508,0.729-3.017,1.217-4.526,1.217
		c-5.104,0-6.758-3.016-6.758-7.734v-14.64h-5.109v-1.994h5.109v-7.004L433.204,339.279z"/>
	<path clip-path="url(#SVGID_2_)" fill="#66C18C" d="M447.457,346.527l0.095,4.279c1.508-3.257,4.914-4.522,7.978-4.522
		c1.801-0.049,3.551,0.438,5.157,1.41l-1.071,1.946c-1.265-0.779-2.674-1.119-4.086-1.119c-4.476,0.049-7.927,3.647-7.927,8.026
		v14.007h-2.384v-24.027H447.457z"/>
	<path clip-path="url(#SVGID_2_)" fill="#66C18C" d="M485.297,346.528v24.026h-2.383v-5.106c-2.336,3.744-5.934,5.496-9.826,5.496
		c-6.711,0-12.207-5.06-12.207-12.403s5.496-12.305,12.207-12.305c3.893,0,7.832,1.798,9.826,5.545v-5.253H485.297z
		 M463.264,358.541c0,6.03,4.377,10.068,9.824,10.068c13.376,0,13.376-20.088,0-20.088
		C467.641,348.521,463.264,352.509,463.264,358.541"/>
	<path clip-path="url(#SVGID_2_)" fill="#66C18C" d="M492.736,358.54c0-6.76,4.428-10.117,9.828-10.117
		c5.544,0,9.824,4.086,9.824,10.07c0,4.313-2.174,7.665-5.502,9.2c-1.289,0.594-2.748,0.917-4.322,0.917
		C497.164,368.61,492.736,365.205,492.736,358.54 M514.771,336.521h-2.333v15.259c-1.946-3.891-5.838-5.642-9.974-5.642
		c-6.711,0-12.062,4.474-12.062,12.401c0,7.979,5.304,12.403,12.013,12.403c4.088,0,8.026-2.043,10.022-5.69v5.302h2.333V336.521z"
		/>
	<path clip-path="url(#SVGID_2_)" fill="#66C18C" d="M519.828,358.54c0-7.198,5.449-12.402,12.21-12.402
		c6.266,0,11.907,3.556,11.962,11.552V358c-0.006,0.533-0.037,1.088-0.094,1.66h-21.645c0.486,5.643,4.813,8.951,9.776,8.951
		c3.161,0,6.858-1.268,8.657-3.65l1.703,1.362c-2.335,3.063-6.518,4.621-10.36,4.621
		C525.277,370.944,519.828,366.178,519.828,358.54 M541.767,357.567c-0.048-5.934-3.939-9.239-9.729-9.239
		c-4.963,0-9.241,3.355-9.776,9.239H541.767z"/>
</g>
</svg>
